<mxfile host="app.diagrams.net" modified="2020-12-15T15:38:12.948Z" agent="5.0 (Windows NT 10.0; Win64; x64) AppleWebKit/537.36 (KHTML, like Gecko) Chrome/87.0.4280.88 Safari/537.36 Edg/87.0.664.60" etag="4Bo4pXzUr1bTQS0YoI2e" version="13.10.9" type="github">
  <diagram id="AnGQJXJ1mIcnuze-KAH3" name="Page-1">
    <mxGraphModel dx="2021" dy="706" grid="1" gridSize="10" guides="1" tooltips="1" connect="1" arrows="1" fold="1" page="1" pageScale="1" pageWidth="850" pageHeight="1100" math="0" shadow="0">
      <root>
        <mxCell id="0" />
        <mxCell id="1" parent="0" />
        <mxCell id="v9-wjGge3q2c8ft5hGrd-7" value="" style="ellipse;whiteSpace=wrap;html=1;" vertex="1" parent="1">
          <mxGeometry x="210" y="240" width="620" height="370" as="geometry" />
        </mxCell>
        <mxCell id="v9-wjGge3q2c8ft5hGrd-8" value="Guest" style="text;html=1;align=center;verticalAlign=middle;resizable=0;points=[];autosize=1;" vertex="1" parent="1">
          <mxGeometry x="495" y="250" width="50" height="20" as="geometry" />
        </mxCell>
        <mxCell id="v9-wjGge3q2c8ft5hGrd-10" value="Home&lt;br&gt;(&quot;/&quot;)" style="rounded=0;whiteSpace=wrap;html=1;" vertex="1" parent="1">
          <mxGeometry x="460" y="520" width="120" height="60" as="geometry" />
        </mxCell>
        <mxCell id="v9-wjGge3q2c8ft5hGrd-11" value="Menu&lt;br&gt;(&quot;/Menu&quot;)" style="rounded=0;whiteSpace=wrap;html=1;" vertex="1" parent="1">
          <mxGeometry x="240" y="370" width="115" height="60" as="geometry" />
        </mxCell>
        <mxCell id="v9-wjGge3q2c8ft5hGrd-12" value="SignUp&lt;br&gt;(&quot;/signup&quot;)" style="rounded=0;whiteSpace=wrap;html=1;" vertex="1" parent="1">
          <mxGeometry x="375" y="370" width="120" height="60" as="geometry" />
        </mxCell>
        <mxCell id="v9-wjGge3q2c8ft5hGrd-13" value="Login&lt;br&gt;(&quot;/login&quot;)" style="rounded=0;whiteSpace=wrap;html=1;" vertex="1" parent="1">
          <mxGeometry x="520" y="370" width="120" height="60" as="geometry" />
        </mxCell>
        <mxCell id="v9-wjGge3q2c8ft5hGrd-14" value="" style="rounded=0;whiteSpace=wrap;html=1;" vertex="1" parent="1">
          <mxGeometry x="660" y="370" width="120" height="60" as="geometry" />
        </mxCell>
        <mxCell id="v9-wjGge3q2c8ft5hGrd-16" value="" style="ellipse;whiteSpace=wrap;html=1;" vertex="1" parent="1">
          <mxGeometry x="-260" y="470" width="600" height="600" as="geometry" />
        </mxCell>
        <mxCell id="v9-wjGge3q2c8ft5hGrd-17" value="Admin" style="text;html=1;align=center;verticalAlign=middle;resizable=0;points=[];autosize=1;" vertex="1" parent="1">
          <mxGeometry x="20" y="500" width="50" height="20" as="geometry" />
        </mxCell>
        <mxCell id="v9-wjGge3q2c8ft5hGrd-18" value="Home&lt;br&gt;(&quot;/Admin&quot;)" style="rounded=0;whiteSpace=wrap;html=1;" vertex="1" parent="1">
          <mxGeometry x="180" y="730" width="120" height="60" as="geometry" />
        </mxCell>
        <mxCell id="v9-wjGge3q2c8ft5hGrd-19" value="Menu&lt;br&gt;(&quot;/admin/menu&quot;)" style="rounded=0;whiteSpace=wrap;html=1;" vertex="1" parent="1">
          <mxGeometry x="-120" y="640" width="170" height="60" as="geometry" />
        </mxCell>
        <mxCell id="v9-wjGge3q2c8ft5hGrd-20" value="Reservation&lt;br&gt;(&quot;/admin/reserve&quot;)" style="rounded=0;whiteSpace=wrap;html=1;" vertex="1" parent="1">
          <mxGeometry x="-120" y="730" width="200" height="60" as="geometry" />
        </mxCell>
        <mxCell id="v9-wjGge3q2c8ft5hGrd-21" value="Account&lt;br&gt;(&quot;/admin/account&quot;)" style="rounded=0;whiteSpace=wrap;html=1;" vertex="1" parent="1">
          <mxGeometry x="-120" y="820" width="170" height="60" as="geometry" />
        </mxCell>
        <mxCell id="v9-wjGge3q2c8ft5hGrd-24" value="" style="ellipse;whiteSpace=wrap;html=1;" vertex="1" parent="1">
          <mxGeometry x="690" y="470" width="600" height="600" as="geometry" />
        </mxCell>
        <mxCell id="v9-wjGge3q2c8ft5hGrd-25" value="User" style="text;html=1;align=center;verticalAlign=middle;resizable=0;points=[];autosize=1;" vertex="1" parent="1">
          <mxGeometry x="975" y="500" width="40" height="20" as="geometry" />
        </mxCell>
        <mxCell id="v9-wjGge3q2c8ft5hGrd-26" value="Home&lt;br&gt;(&quot;/:username/user&quot;)" style="rounded=0;whiteSpace=wrap;html=1;" vertex="1" parent="1">
          <mxGeometry x="780" y="730" width="160" height="60" as="geometry" />
        </mxCell>
        <mxCell id="v9-wjGge3q2c8ft5hGrd-27" value="Menu&lt;br&gt;(&quot;/:username/user/menu&quot;)" style="rounded=0;whiteSpace=wrap;html=1;" vertex="1" parent="1">
          <mxGeometry x="1015" y="640" width="170" height="60" as="geometry" />
        </mxCell>
        <mxCell id="v9-wjGge3q2c8ft5hGrd-28" value="Reservation&lt;br&gt;(&quot;/:username/user/reserve&quot;)" style="rounded=0;whiteSpace=wrap;html=1;" vertex="1" parent="1">
          <mxGeometry x="1015" y="730" width="215" height="60" as="geometry" />
        </mxCell>
        <mxCell id="v9-wjGge3q2c8ft5hGrd-29" value="Profile&lt;br&gt;(&quot;/:username/user/profile&quot;)" style="rounded=0;whiteSpace=wrap;html=1;" vertex="1" parent="1">
          <mxGeometry x="1015" y="820" width="205" height="60" as="geometry" />
        </mxCell>
        <mxCell id="v9-wjGge3q2c8ft5hGrd-30" value="" style="endArrow=classic;html=1;entryX=0.5;entryY=1;entryDx=0;entryDy=0;exitX=0;exitY=0.5;exitDx=0;exitDy=0;" edge="1" parent="1" source="v9-wjGge3q2c8ft5hGrd-26" target="v9-wjGge3q2c8ft5hGrd-10">
          <mxGeometry relative="1" as="geometry">
            <mxPoint x="530" y="750" as="sourcePoint" />
            <mxPoint x="630" y="750" as="targetPoint" />
          </mxGeometry>
        </mxCell>
        <mxCell id="v9-wjGge3q2c8ft5hGrd-31" value="Logout" style="edgeLabel;resizable=0;html=1;align=center;verticalAlign=middle;" connectable="0" vertex="1" parent="v9-wjGge3q2c8ft5hGrd-30">
          <mxGeometry relative="1" as="geometry" />
        </mxCell>
        <mxCell id="v9-wjGge3q2c8ft5hGrd-32" value="" style="endArrow=classic;html=1;entryX=0.5;entryY=1;entryDx=0;entryDy=0;exitX=1;exitY=0.5;exitDx=0;exitDy=0;" edge="1" parent="1" source="v9-wjGge3q2c8ft5hGrd-18" target="v9-wjGge3q2c8ft5hGrd-10">
          <mxGeometry relative="1" as="geometry">
            <mxPoint x="790" y="770" as="sourcePoint" />
            <mxPoint x="530" y="590" as="targetPoint" />
          </mxGeometry>
        </mxCell>
        <mxCell id="v9-wjGge3q2c8ft5hGrd-33" value="Logout" style="edgeLabel;resizable=0;html=1;align=center;verticalAlign=middle;" connectable="0" vertex="1" parent="v9-wjGge3q2c8ft5hGrd-32">
          <mxGeometry relative="1" as="geometry" />
        </mxCell>
        <mxCell id="v9-wjGge3q2c8ft5hGrd-34" value="" style="endArrow=classic;html=1;entryX=0.202;entryY=0.017;entryDx=0;entryDy=0;exitX=1;exitY=1;exitDx=0;exitDy=0;entryPerimeter=0;" edge="1" parent="1" source="v9-wjGge3q2c8ft5hGrd-10" target="v9-wjGge3q2c8ft5hGrd-26">
          <mxGeometry relative="1" as="geometry">
            <mxPoint x="790" y="770" as="sourcePoint" />
            <mxPoint x="530" y="590" as="targetPoint" />
          </mxGeometry>
        </mxCell>
        <mxCell id="v9-wjGge3q2c8ft5hGrd-35" value="Login" style="edgeLabel;resizable=0;html=1;align=center;verticalAlign=middle;" connectable="0" vertex="1" parent="v9-wjGge3q2c8ft5hGrd-34">
          <mxGeometry relative="1" as="geometry" />
        </mxCell>
      </root>
    </mxGraphModel>
  </diagram>
</mxfile>
